<svg xmlns="http://www.w3.org/2000/svg" xmlns:xlink="http://www.w3.org/1999/xlink" width="378" zoomAndPan="magnify" viewBox="0 0 283.5 283.500005" height="378" preserveAspectRatio="xMidYMid meet" version="1.0">
<defs>
<filter x="0%" y="0%" width="100%" height="100%" id="ca5bf85ec5">
<feColorMatrix values="0 0 0 0 1 0 0 0 0 1 0 0 0 0 1 0 0 0 1 0" color-interpolation-filters="sRGB"/>
</filter>
<clipPath id="4c791bfede">
<path d="M 0 0 L 283 0 L 283 283 L 0 283 Z M 0 0 " clip-rule="nonzero"/>
</clipPath>
<clipPath id="ca4b8fe46c">
<path d="M 48 12.292969 L 236 12.292969 L 236 272.867188 L 48 272.867188 Z M 48 12.292969 " clip-rule="nonzero"/>
</clipPath>
<mask id="92b90a6a0a">
<g filter="url(#ca5bf85ec5)">
<rect x="-62.37" width="408.24" fill="#000000" y="-62.370001" height="408.240007" fill-opacity="0.5"/>
</g>
</mask>
<clipPath id="416ae96e9e">
<path d="M 0.0898438 26 L 9 26 L 9 34.691406 L 0.0898438 34.691406 Z M 0.0898438 26 " clip-rule="nonzero"/>
</clipPath>
<clipPath id="9e03bd40f6">
<rect x="0" width="26" y="0" height="35"/>
</clipPath>
<clipPath id="0cf1f8c577">
<rect x="0" width="283" y="0" height="283"/>
</clipPath>
</defs>
<g transform="matrix(1, 0, 0, 1, 0, 0.000000000000005262)">
<g clip-path="url(#ca4b8fe46c)">
<path fill="#c0ebfa" d="M 172.390625 112.039062 L 172.390625 42.476562 C 172.390625 39.644531 174.167969 37.246094 176.71875 36.011719 C 181.183594 33.855469 184.171875 29.152344 183.730469 23.761719 C 183.191406 17.15625 177.238281 12.289062 170.609375 12.289062 L 113.890625 12.289062 C 107.265625 12.289062 101.308594 17.15625 100.769531 23.761719 C 100.332031 29.152344 103.316406 33.855469 107.78125 36.011719 C 110.335938 37.242188 112.109375 39.617188 112.109375 42.445312 C 112.109375 58.9375 112.109375 94.917969 112.109375 112.039062 C 112.109375 115.769531 111.046875 119.398438 109.058594 122.554688 C 81.265625 166.71875 46.902344 229.53125 48.902344 240.183594 C 52.039062 256.890625 100.472656 272.726562 142.253906 272.726562 C 184.03125 272.726562 232.464844 256.890625 235.601562 240.183594 C 237.601562 229.53125 203.242188 166.71875 175.441406 122.558594 C 173.453125 119.402344 172.390625 115.769531 172.390625 112.039062 Z M 172.390625 112.039062 " fill-opacity="1" fill-rule="nonzero"/>
</g>
<path fill="#99acff" d="M 227.917969 236.910156 C 225.070312 252.234375 180.613281 266.78125 142.269531 266.78125 C 103.921875 266.78125 59.464844 252.234375 56.582031 236.910156 C 55.382812 230.613281 67.285156 204.738281 83.269531 176.085938 C 88.53125 166.65625 96.5 150.832031 101.160156 147.761719 C 104.667969 145.453125 109.738281 153.714844 114.109375 155.308594 C 120.554688 157.640625 125.796875 155.074219 130.386719 150.003906 C 134.976562 144.929688 140.195312 139.046875 147.042969 139.304688 C 154.851562 139.601562 160.148438 147.894531 167.773438 149.5625 C 173.101562 150.746094 177.910156 143.410156 182.34375 146.792969 C 184.707031 148.59375 188.527344 154.921875 190.921875 159.035156 C 211.027344 193.589844 229.347656 229.410156 227.925781 236.917969 Z M 227.917969 236.910156 " fill-opacity="1" fill-rule="nonzero"/>
<path fill="#cc007e" d="M 112.742188 220.316406 C 112.742188 220.554688 112.707031 220.792969 112.640625 221.027344 C 112.574219 221.261719 112.476562 221.492188 112.347656 221.710938 C 112.21875 221.933594 112.0625 222.144531 111.875 222.34375 C 111.683594 222.542969 111.472656 222.726562 111.234375 222.894531 C 110.996094 223.0625 110.734375 223.214844 110.453125 223.347656 C 110.171875 223.480469 109.875 223.59375 109.5625 223.683594 C 109.25 223.777344 108.929688 223.84375 108.597656 223.890625 C 108.265625 223.9375 107.933594 223.960938 107.59375 223.960938 C 107.257812 223.960938 106.921875 223.9375 106.589844 223.890625 C 106.257812 223.84375 105.9375 223.777344 105.625 223.683594 C 105.3125 223.59375 105.015625 223.480469 104.734375 223.347656 C 104.453125 223.214844 104.195312 223.0625 103.957031 222.894531 C 103.714844 222.726562 103.503906 222.542969 103.316406 222.34375 C 103.128906 222.144531 102.96875 221.933594 102.839844 221.710938 C 102.710938 221.492188 102.613281 221.261719 102.546875 221.027344 C 102.480469 220.792969 102.449219 220.554688 102.449219 220.316406 C 102.449219 220.078125 102.480469 219.839844 102.546875 219.605469 C 102.613281 219.371094 102.710938 219.140625 102.839844 218.921875 C 102.96875 218.699219 103.128906 218.488281 103.316406 218.289062 C 103.503906 218.089844 103.714844 217.90625 103.957031 217.738281 C 104.195312 217.570312 104.453125 217.417969 104.734375 217.285156 C 105.015625 217.152344 105.3125 217.039062 105.625 216.949219 C 105.9375 216.855469 106.257812 216.789062 106.589844 216.742188 C 106.921875 216.695312 107.257812 216.671875 107.59375 216.671875 C 107.933594 216.671875 108.265625 216.695312 108.597656 216.742188 C 108.929688 216.789062 109.25 216.855469 109.5625 216.949219 C 109.875 217.039062 110.171875 217.152344 110.453125 217.285156 C 110.734375 217.417969 110.996094 217.570312 111.234375 217.738281 C 111.472656 217.90625 111.683594 218.089844 111.875 218.289062 C 112.0625 218.488281 112.21875 218.699219 112.347656 218.921875 C 112.476562 219.140625 112.574219 219.371094 112.640625 219.605469 C 112.707031 219.839844 112.742188 220.078125 112.742188 220.316406 Z M 112.742188 220.316406 " fill-opacity="1" fill-rule="nonzero"/>
<path fill="#cc007e" d="M 182.050781 220.316406 C 182.050781 220.554688 182.019531 220.792969 181.953125 221.027344 C 181.886719 221.261719 181.789062 221.492188 181.660156 221.710938 C 181.53125 221.933594 181.371094 222.144531 181.183594 222.34375 C 180.996094 222.542969 180.785156 222.726562 180.542969 222.894531 C 180.304688 223.0625 180.046875 223.214844 179.765625 223.347656 C 179.484375 223.480469 179.1875 223.59375 178.875 223.683594 C 178.5625 223.777344 178.242188 223.84375 177.910156 223.890625 C 177.578125 223.9375 177.242188 223.960938 176.90625 223.960938 C 176.566406 223.960938 176.234375 223.9375 175.902344 223.890625 C 175.570312 223.84375 175.25 223.777344 174.9375 223.683594 C 174.625 223.59375 174.328125 223.480469 174.046875 223.347656 C 173.765625 223.214844 173.503906 223.0625 173.265625 222.894531 C 173.027344 222.726562 172.816406 222.542969 172.625 222.34375 C 172.4375 222.144531 172.28125 221.933594 172.152344 221.710938 C 172.023438 221.492188 171.925781 221.261719 171.859375 221.027344 C 171.792969 220.792969 171.757812 220.554688 171.757812 220.316406 C 171.757812 220.078125 171.792969 219.839844 171.859375 219.605469 C 171.925781 219.371094 172.023438 219.140625 172.152344 218.921875 C 172.28125 218.699219 172.4375 218.488281 172.625 218.289062 C 172.816406 218.089844 173.027344 217.90625 173.265625 217.738281 C 173.503906 217.570312 173.765625 217.417969 174.046875 217.285156 C 174.328125 217.152344 174.625 217.039062 174.9375 216.949219 C 175.25 216.855469 175.570312 216.789062 175.902344 216.742188 C 176.234375 216.695312 176.566406 216.671875 176.90625 216.671875 C 177.242188 216.671875 177.578125 216.695312 177.910156 216.742188 C 178.242188 216.789062 178.5625 216.855469 178.875 216.949219 C 179.1875 217.039062 179.484375 217.152344 179.765625 217.285156 C 180.046875 217.417969 180.304688 217.570312 180.542969 217.738281 C 180.785156 217.90625 180.996094 218.089844 181.183594 218.289062 C 181.371094 218.488281 181.53125 218.699219 181.660156 218.921875 C 181.789062 219.140625 181.886719 219.371094 181.953125 219.605469 C 182.019531 219.839844 182.050781 220.078125 182.050781 220.316406 Z M 182.050781 220.316406 " fill-opacity="1" fill-rule="nonzero"/>
<path fill="#000000" d="M 149.367188 219.3125 C 147.152344 218.660156 145.949219 220.523438 141.632812 220.226562 C 139.019531 220.046875 137.261719 217.972656 135.167969 219.609375 C 132.667969 221.5625 135.554688 228.898438 142.445312 229.234375 C 151.503906 229.675781 153.863281 220.632812 149.367188 219.316406 Z M 149.367188 219.3125 " fill-opacity="1" fill-rule="nonzero"/>
<path fill="#cc007e" d="M 150.792969 225.289062 C 145.253906 224.179688 139.878906 225.367188 136.425781 226.519531 C 137.808594 227.976562 139.839844 229.101562 142.445312 229.234375 C 146.746094 229.441406 149.535156 227.515625 150.792969 225.296875 Z M 150.792969 225.289062 " fill-opacity="1" fill-rule="nonzero"/>
<path fill="#000000" d="M 126.664062 217.179688 L 126.621094 217.179688 C 125.921875 217.160156 125.371094 216.570312 125.398438 215.875 C 125.398438 215.816406 125.542969 210.257812 123.011719 207.644531 C 122.171875 206.777344 121.140625 206.355469 119.851562 206.355469 C 114.03125 206.355469 113.945312 215.816406 113.945312 215.914062 C 113.945312 216.613281 113.375 217.179688 112.679688 217.179688 C 111.980469 217.179688 111.414062 216.613281 111.414062 215.914062 C 111.414062 211.734375 113.179688 203.824219 119.851562 203.824219 C 121.835938 203.824219 123.511719 204.519531 124.835938 205.886719 C 128.105469 209.273438 127.933594 215.6875 127.921875 215.957031 C 127.902344 216.644531 127.339844 217.179688 126.65625 217.179688 Z M 126.664062 217.179688 " fill-opacity="1" fill-rule="nonzero"/>
<path fill="#000000" d="M 157.835938 217.179688 C 157.132812 217.179688 156.570312 216.613281 156.570312 215.914062 C 156.570312 211.734375 158.332031 203.824219 165.007812 203.824219 C 166.992188 203.824219 168.671875 204.519531 169.992188 205.886719 C 173.269531 209.273438 173.09375 215.6875 173.082031 215.957031 C 173.054688 216.65625 172.421875 217.144531 171.773438 217.179688 C 171.078125 217.160156 170.53125 216.570312 170.550781 215.875 C 170.550781 215.816406 170.691406 210.253906 168.164062 207.644531 C 167.328125 206.777344 166.296875 206.355469 165.003906 206.355469 C 159.1875 206.355469 159.097656 215.816406 159.097656 215.914062 C 159.097656 216.613281 158.53125 217.179688 157.832031 217.179688 Z M 157.835938 217.179688 " fill-opacity="1" fill-rule="nonzero"/>
<g mask="url(#92b90a6a0a)">
<g transform="matrix(1, 0, 0, 1, 84, 162)">
<g clip-path="url(#9e03bd40f6)">
<path fill="#ffffff" d="M 19.300781 3.957031 C 19.632812 4.144531 19.929688 4.394531 20.1875 4.703125 C 20.445312 5.007812 20.660156 5.371094 20.832031 5.785156 C 21.007812 6.199219 21.132812 6.660156 21.210938 7.164062 C 21.292969 7.667969 21.324219 8.210938 21.308594 8.785156 C 21.292969 9.363281 21.230469 9.964844 21.121094 10.589844 C 21.011719 11.214844 20.855469 11.851562 20.65625 12.503906 C 20.457031 13.15625 20.214844 13.804688 19.929688 14.457031 C 19.648438 15.105469 19.328125 15.746094 18.972656 16.371094 C 18.617188 16.996094 18.234375 17.597656 17.820312 18.175781 C 17.40625 18.75 16.972656 19.292969 16.515625 19.796875 C 16.058594 20.304688 15.59375 20.765625 15.109375 21.179688 C 14.628906 21.59375 14.144531 21.957031 13.660156 22.265625 C 13.171875 22.574219 12.691406 22.824219 12.214844 23.011719 C 11.742188 23.203125 11.28125 23.332031 10.835938 23.394531 C 10.394531 23.460938 9.972656 23.460938 9.578125 23.394531 C 9.179688 23.332031 8.816406 23.207031 8.480469 23.015625 C 8.148438 22.828125 7.851562 22.578125 7.59375 22.269531 C 7.335938 21.960938 7.121094 21.601562 6.949219 21.1875 C 6.777344 20.773438 6.648438 20.3125 6.570312 19.808594 C 6.488281 19.300781 6.457031 18.761719 6.472656 18.183594 C 6.488281 17.609375 6.550781 17.007812 6.660156 16.382812 C 6.769531 15.757812 6.925781 15.117188 7.125 14.46875 C 7.324219 13.816406 7.566406 13.167969 7.851562 12.515625 C 8.132812 11.863281 8.453125 11.226562 8.808594 10.601562 C 9.164062 9.976562 9.546875 9.375 9.960938 8.796875 C 10.375 8.21875 10.808594 7.679688 11.265625 7.171875 C 11.722656 6.667969 12.191406 6.207031 12.671875 5.792969 C 13.152344 5.378906 13.636719 5.015625 14.121094 4.707031 C 14.609375 4.398438 15.089844 4.148438 15.566406 3.957031 C 16.039062 3.769531 16.5 3.640625 16.945312 3.578125 C 17.386719 3.511719 17.808594 3.511719 18.207031 3.574219 C 18.601562 3.640625 18.96875 3.765625 19.300781 3.957031 Z M 19.300781 3.957031 " fill-opacity="1" fill-rule="nonzero"/>
<g clip-path="url(#416ae96e9e)">
<path fill="#ffffff" d="M 8.269531 30.273438 C 8.269531 30.792969 8.171875 31.289062 7.972656 31.769531 C 7.773438 32.25 7.492188 32.671875 7.125 33.039062 C 6.757812 33.40625 6.335938 33.6875 5.855469 33.886719 C 5.375 34.085938 4.878906 34.183594 4.359375 34.183594 C 3.839844 34.183594 3.339844 34.085938 2.863281 33.886719 C 2.382812 33.6875 1.960938 33.40625 1.59375 33.039062 C 1.226562 32.671875 0.941406 32.25 0.746094 31.769531 C 0.546875 31.289062 0.445312 30.792969 0.445312 30.273438 C 0.445312 29.753906 0.546875 29.253906 0.746094 28.777344 C 0.941406 28.296875 1.226562 27.875 1.59375 27.507812 C 1.960938 27.140625 2.382812 26.859375 2.863281 26.660156 C 3.339844 26.460938 3.839844 26.363281 4.359375 26.363281 C 4.878906 26.363281 5.375 26.460938 5.855469 26.660156 C 6.335938 26.859375 6.757812 27.140625 7.125 27.507812 C 7.492188 27.875 7.773438 28.296875 7.972656 28.777344 C 8.171875 29.253906 8.269531 29.753906 8.269531 30.273438 Z M 8.269531 30.273438 " fill-opacity="1" fill-rule="nonzero"/>
</g>
</g>
</g>
</g>
<path fill="#99acff" d="M 127.589844 136.238281 C 127.589844 136.699219 127.546875 137.152344 127.457031 137.601562 C 127.367188 138.050781 127.234375 138.488281 127.058594 138.914062 C 126.882812 139.335938 126.667969 139.738281 126.414062 140.121094 C 126.15625 140.503906 125.867188 140.855469 125.542969 141.179688 C 125.21875 141.503906 124.867188 141.796875 124.484375 142.050781 C 124.101562 142.304688 123.699219 142.519531 123.273438 142.695312 C 122.851562 142.871094 122.414062 143.003906 121.964844 143.09375 C 121.515625 143.183594 121.058594 143.226562 120.601562 143.226562 C 120.140625 143.226562 119.6875 143.183594 119.238281 143.09375 C 118.785156 143.003906 118.347656 142.871094 117.925781 142.695312 C 117.5 142.519531 117.097656 142.304688 116.714844 142.050781 C 116.335938 141.796875 115.980469 141.503906 115.65625 141.179688 C 115.332031 140.855469 115.042969 140.503906 114.789062 140.121094 C 114.535156 139.738281 114.316406 139.335938 114.140625 138.914062 C 113.964844 138.488281 113.835938 138.050781 113.746094 137.601562 C 113.65625 137.152344 113.609375 136.699219 113.609375 136.238281 C 113.609375 135.78125 113.65625 135.324219 113.746094 134.875 C 113.835938 134.425781 113.964844 133.988281 114.140625 133.5625 C 114.316406 133.140625 114.535156 132.738281 114.789062 132.355469 C 115.042969 131.972656 115.332031 131.621094 115.65625 131.296875 C 115.980469 130.972656 116.335938 130.679688 116.714844 130.425781 C 117.097656 130.171875 117.5 129.957031 117.925781 129.78125 C 118.347656 129.605469 118.785156 129.472656 119.238281 129.382812 C 119.6875 129.292969 120.140625 129.25 120.601562 129.25 C 121.058594 129.25 121.515625 129.292969 121.964844 129.382812 C 122.414062 129.472656 122.851562 129.605469 123.273438 129.78125 C 123.699219 129.957031 124.101562 130.171875 124.484375 130.425781 C 124.867188 130.679688 125.21875 130.972656 125.542969 131.296875 C 125.867188 131.621094 126.15625 131.972656 126.414062 132.355469 C 126.667969 132.738281 126.882812 133.140625 127.058594 133.5625 C 127.234375 133.988281 127.367188 134.425781 127.457031 134.875 C 127.546875 135.324219 127.589844 135.78125 127.589844 136.238281 Z M 127.589844 136.238281 " fill-opacity="1" fill-rule="nonzero"/>
<path fill="#99acff" d="M 140.558594 116.207031 C 140.558594 116.542969 140.527344 116.875 140.460938 117.207031 C 140.394531 117.539062 140.296875 117.859375 140.167969 118.167969 C 140.039062 118.480469 139.882812 118.777344 139.695312 119.054688 C 139.507812 119.335938 139.296875 119.59375 139.058594 119.832031 C 138.820312 120.070312 138.558594 120.285156 138.28125 120.472656 C 138 120.660156 137.703125 120.816406 137.394531 120.945312 C 137.082031 121.074219 136.761719 121.171875 136.429688 121.238281 C 136.101562 121.304688 135.765625 121.335938 135.429688 121.335938 C 135.09375 121.335938 134.757812 121.304688 134.429688 121.238281 C 134.097656 121.171875 133.777344 121.074219 133.464844 120.945312 C 133.15625 120.816406 132.859375 120.660156 132.578125 120.472656 C 132.296875 120.285156 132.039062 120.070312 131.800781 119.832031 C 131.5625 119.59375 131.351562 119.335938 131.164062 119.054688 C 130.976562 118.777344 130.816406 118.480469 130.6875 118.167969 C 130.558594 117.859375 130.464844 117.539062 130.398438 117.207031 C 130.332031 116.875 130.296875 116.542969 130.296875 116.207031 C 130.296875 115.867188 130.332031 115.535156 130.398438 115.203125 C 130.464844 114.875 130.558594 114.554688 130.6875 114.242188 C 130.816406 113.929688 130.976562 113.636719 131.164062 113.355469 C 131.351562 113.074219 131.5625 112.816406 131.800781 112.578125 C 132.039062 112.339844 132.296875 112.128906 132.578125 111.941406 C 132.859375 111.753906 133.15625 111.59375 133.464844 111.464844 C 133.777344 111.335938 134.097656 111.238281 134.429688 111.175781 C 134.757812 111.109375 135.09375 111.074219 135.429688 111.074219 C 135.765625 111.074219 136.101562 111.109375 136.429688 111.175781 C 136.761719 111.238281 137.082031 111.335938 137.394531 111.464844 C 137.703125 111.59375 138 111.753906 138.28125 111.941406 C 138.558594 112.128906 138.820312 112.339844 139.058594 112.578125 C 139.296875 112.816406 139.507812 113.074219 139.695312 113.355469 C 139.882812 113.636719 140.039062 113.929688 140.167969 114.242188 C 140.296875 114.554688 140.394531 114.875 140.460938 115.203125 C 140.527344 115.535156 140.558594 115.867188 140.558594 116.207031 Z M 140.558594 116.207031 " fill-opacity="1" fill-rule="nonzero"/>
<path fill="#99acff" d="M 163.703125 133.921875 C 163.703125 134.402344 163.609375 134.863281 163.425781 135.308594 C 163.242188 135.75 162.980469 136.144531 162.640625 136.484375 C 162.300781 136.824219 161.90625 137.085938 161.464844 137.269531 C 161.019531 137.453125 160.558594 137.546875 160.078125 137.546875 C 159.597656 137.546875 159.132812 137.453125 158.6875 137.269531 C 158.246094 137.085938 157.851562 136.824219 157.511719 136.484375 C 157.171875 136.144531 156.910156 135.75 156.726562 135.308594 C 156.542969 134.863281 156.453125 134.402344 156.453125 133.921875 C 156.453125 133.441406 156.542969 132.976562 156.726562 132.53125 C 156.910156 132.089844 157.171875 131.695312 157.511719 131.355469 C 157.851562 131.015625 158.246094 130.753906 158.6875 130.570312 C 159.132812 130.386719 159.597656 130.296875 160.078125 130.296875 C 160.558594 130.296875 161.019531 130.386719 161.464844 130.570312 C 161.90625 130.753906 162.300781 131.015625 162.640625 131.355469 C 162.980469 131.695312 163.242188 132.089844 163.425781 132.53125 C 163.609375 132.976562 163.703125 133.441406 163.703125 133.921875 Z M 163.703125 133.921875 " fill-opacity="1" fill-rule="nonzero"/>
</g>
</svg>
