<svg xmlns="http://www.w3.org/2000/svg" xmlns:xlink="http://www.w3.org/1999/xlink" width="378" zoomAndPan="magnify" viewBox="0 0 283.5 283.500005" height="378" preserveAspectRatio="xMidYMid meet" version="1.0"><defs><filter x="0%" y="0%" width="100%" height="100%" id="52c43f7b0f"><feColorMatrix values="0 0 0 0 1 0 0 0 0 1 0 0 0 0 1 0 0 0 1 0" color-interpolation-filters="sRGB"/></filter><clipPath id="c763a10851"><path d="M 1 0.980469 L 96 0.980469 L 96 257.8125 L 1 257.8125 Z M 1 0.980469 " clip-rule="nonzero"/></clipPath><mask id="4a95275c2c"><g filter="url(#52c43f7b0f)"><rect x="-155.37" width="408.24" fill="#000000" y="-74.370001" height="408.240007" fill-opacity="0.5"/></g></mask><clipPath id="ccbd6ad77e"><path d="M 0.277344 1 L 10 1 L 10 24.695312 L 0.277344 24.695312 Z M 0.277344 1 " clip-rule="nonzero"/></clipPath><clipPath id="c9769f7c3c"><rect x="0" width="11" y="0" height="25"/></clipPath><mask id="72ca5e3f86"><g filter="url(#52c43f7b0f)"><rect x="-155.37" width="408.24" fill="#000000" y="-74.370001" height="408.240007" fill-opacity="0.5"/></g></mask><clipPath id="2feb9c961a"><path d="M 0.195312 1 L 7 1 L 7 7.796875 L 0.195312 7.796875 Z M 0.195312 1 " clip-rule="nonzero"/></clipPath><clipPath id="a2b7ddd8c1"><rect x="0" width="8" y="0" height="8"/></clipPath><clipPath id="02252135e2"><rect x="0" width="97" y="0" height="259"/></clipPath></defs><g transform="matrix(1, 0, 0, 1, 93, 12)"><g clip-path="url(#02252135e2)"><g clip-path="url(#c763a10851)"><path fill="#c0ebfa" d="M 80.804688 0.980469 L 16.316406 0.980469 C 8.75 0.980469 1.964844 6.554688 1.378906 14.097656 C 0.878906 20.539062 4.683594 26.117188 10.214844 28.351562 C 12.695312 29.351562 14.269531 31.765625 14.105469 34.429688 C 11.015625 86.066406 12.25 200.386719 15.34375 223.757812 C 19.09375 252.074219 38.6875 257.734375 48.558594 257.734375 C 58.425781 257.734375 78.023438 252.074219 81.769531 223.757812 C 84.863281 200.390625 86.097656 86.066406 83.007812 34.4375 C 82.847656 31.765625 84.425781 29.355469 86.898438 28.355469 C 92.429688 26.121094 96.234375 20.546875 95.738281 14.101562 C 95.15625 6.5625 88.363281 0.988281 80.800781 0.988281 Z M 80.804688 0.980469 " fill-opacity="1" fill-rule="nonzero"/></g><path fill="#48caff" d="M 79.792969 86.453125 C 79.773438 84.621094 78.253906 83.125 76.425781 83.21875 C 75.109375 83.285156 73.8125 83.46875 72.558594 83.765625 C 67.757812 84.902344 63.421875 87.640625 58.621094 88.734375 C 47.800781 91.128906 37.066406 84.820312 26.035156 83.511719 C 24.242188 83.300781 22.4375 83.222656 20.617188 83.273438 C 18.816406 83.324219 17.347656 84.710938 17.328125 86.515625 C 16.730469 139.582031 17.820312 207.78125 19.761719 222.570312 C 23.046875 247.113281 40.011719 252.039062 48.558594 252.039062 C 57.101562 252.039062 74.113281 247.113281 77.355469 222.570312 C 79.296875 207.75 80.425781 139.542969 79.792969 86.449219 Z M 79.792969 86.453125 " fill-opacity="1" fill-rule="nonzero"/><path fill="#000000" d="M 38.308594 168.6875 C 38.308594 169.210938 38.207031 169.710938 38.007812 170.195312 C 37.808594 170.675781 37.523438 171.101562 37.15625 171.46875 C 36.789062 171.839844 36.363281 172.125 35.878906 172.324219 C 35.398438 172.523438 34.894531 172.621094 34.375 172.621094 C 33.851562 172.621094 33.351562 172.523438 32.871094 172.324219 C 32.386719 172.125 31.960938 171.839844 31.59375 171.46875 C 31.222656 171.101562 30.941406 170.675781 30.742188 170.195312 C 30.542969 169.710938 30.441406 169.210938 30.441406 168.6875 C 30.441406 168.167969 30.542969 167.664062 30.742188 167.183594 C 30.941406 166.703125 31.222656 166.277344 31.59375 165.90625 C 31.960938 165.539062 32.386719 165.253906 32.871094 165.054688 C 33.351562 164.855469 33.851562 164.753906 34.375 164.753906 C 34.894531 164.753906 35.398438 164.855469 35.878906 165.054688 C 36.363281 165.253906 36.789062 165.539062 37.15625 165.90625 C 37.523438 166.277344 37.808594 166.703125 38.007812 167.183594 C 38.207031 167.664062 38.308594 168.167969 38.308594 168.6875 Z M 38.308594 168.6875 " fill-opacity="1" fill-rule="nonzero"/><path fill="#cc007e" d="M 31 173.648438 C 31 173.9375 30.921875 174.214844 30.769531 174.480469 C 30.613281 174.746094 30.390625 174.980469 30.105469 175.183594 C 29.816406 175.390625 29.488281 175.546875 29.113281 175.65625 C 28.738281 175.765625 28.347656 175.820312 27.941406 175.820312 C 27.535156 175.820312 27.144531 175.765625 26.769531 175.65625 C 26.394531 175.546875 26.0625 175.390625 25.777344 175.183594 C 25.488281 174.980469 25.269531 174.746094 25.113281 174.480469 C 24.957031 174.214844 24.878906 173.9375 24.878906 173.648438 C 24.878906 173.359375 24.957031 173.085938 25.113281 172.816406 C 25.269531 172.550781 25.488281 172.316406 25.777344 172.113281 C 26.0625 171.910156 26.394531 171.753906 26.769531 171.640625 C 27.144531 171.53125 27.535156 171.476562 27.941406 171.476562 C 28.347656 171.476562 28.738281 171.53125 29.113281 171.640625 C 29.488281 171.753906 29.816406 171.910156 30.105469 172.113281 C 30.390625 172.316406 30.613281 172.550781 30.769531 172.816406 C 30.921875 173.085938 31 173.359375 31 173.648438 Z M 31 173.648438 " fill-opacity="1" fill-rule="nonzero"/><path fill="#000000" d="M 66.683594 168.6875 C 66.683594 169.210938 66.585938 169.710938 66.382812 170.195312 C 66.183594 170.675781 65.902344 171.101562 65.53125 171.46875 C 65.164062 171.839844 64.738281 172.125 64.253906 172.324219 C 63.773438 172.523438 63.273438 172.621094 62.75 172.621094 C 62.230469 172.621094 61.726562 172.523438 61.246094 172.324219 C 60.761719 172.125 60.339844 171.839844 59.96875 171.46875 C 59.601562 171.101562 59.316406 170.675781 59.117188 170.195312 C 58.917969 169.710938 58.816406 169.210938 58.816406 168.6875 C 58.816406 168.167969 58.917969 167.664062 59.117188 167.183594 C 59.316406 166.703125 59.601562 166.277344 59.96875 165.90625 C 60.339844 165.539062 60.761719 165.253906 61.246094 165.054688 C 61.726562 164.855469 62.230469 164.753906 62.75 164.753906 C 63.273438 164.753906 63.773438 164.855469 64.253906 165.054688 C 64.738281 165.253906 65.164062 165.539062 65.53125 165.90625 C 65.902344 166.277344 66.183594 166.703125 66.382812 167.183594 C 66.585938 167.664062 66.683594 168.167969 66.683594 168.6875 Z M 66.683594 168.6875 " fill-opacity="1" fill-rule="nonzero"/><path fill="#cc007e" d="M 72.246094 173.648438 C 72.246094 173.9375 72.167969 174.214844 72.011719 174.480469 C 71.855469 174.746094 71.636719 174.980469 71.347656 175.183594 C 71.0625 175.390625 70.730469 175.546875 70.355469 175.65625 C 69.980469 175.765625 69.589844 175.820312 69.183594 175.820312 C 68.777344 175.820312 68.386719 175.765625 68.011719 175.65625 C 67.636719 175.546875 67.308594 175.390625 67.019531 175.183594 C 66.734375 174.980469 66.511719 174.746094 66.355469 174.480469 C 66.203125 174.214844 66.125 173.9375 66.125 173.648438 C 66.125 173.359375 66.203125 173.085938 66.355469 172.816406 C 66.511719 172.550781 66.734375 172.316406 67.019531 172.113281 C 67.308594 171.910156 67.636719 171.753906 68.011719 171.640625 C 68.386719 171.53125 68.777344 171.476562 69.183594 171.476562 C 69.589844 171.476562 69.980469 171.53125 70.355469 171.640625 C 70.730469 171.753906 71.0625 171.910156 71.347656 172.113281 C 71.636719 172.316406 71.855469 172.550781 72.011719 172.816406 C 72.167969 173.085938 72.246094 173.359375 72.246094 173.648438 Z M 72.246094 173.648438 " fill-opacity="1" fill-rule="nonzero"/><path fill="#000000" d="M 48.382812 178.425781 C 47.023438 178.425781 45.9375 178.007812 45.15625 177.191406 C 43.824219 175.785156 43.90625 173.707031 43.910156 173.617188 C 43.921875 173.390625 44.105469 173.21875 44.332031 173.21875 L 44.351562 173.21875 C 44.582031 173.226562 44.761719 173.429688 44.753906 173.660156 C 44.753906 173.679688 44.6875 175.472656 45.773438 176.617188 C 46.386719 177.257812 47.261719 177.582031 48.382812 177.582031 C 52.171875 177.582031 52.230469 173.804688 52.230469 173.640625 C 52.230469 173.40625 52.417969 173.21875 52.648438 173.21875 C 52.882812 173.21875 53.070312 173.40625 53.070312 173.640625 C 53.070312 173.683594 53.015625 178.425781 48.378906 178.425781 Z M 48.382812 178.425781 " fill-opacity="1" fill-rule="nonzero"/><path fill="#48caff" d="M 59.582031 74.945312 C 59.582031 75.398438 59.539062 75.851562 59.449219 76.296875 C 59.359375 76.742188 59.230469 77.175781 59.054688 77.597656 C 58.878906 78.015625 58.667969 78.414062 58.414062 78.792969 C 58.160156 79.171875 57.875 79.523438 57.554688 79.84375 C 57.230469 80.164062 56.882812 80.453125 56.503906 80.703125 C 56.125 80.957031 55.726562 81.171875 55.304688 81.34375 C 54.886719 81.519531 54.453125 81.652344 54.007812 81.738281 C 53.558594 81.828125 53.109375 81.871094 52.65625 81.871094 C 52.199219 81.871094 51.75 81.828125 51.304688 81.738281 C 50.859375 81.652344 50.425781 81.519531 50.003906 81.34375 C 49.585938 81.171875 49.183594 80.957031 48.808594 80.703125 C 48.429688 80.453125 48.078125 80.164062 47.757812 79.84375 C 47.433594 79.523438 47.148438 79.171875 46.894531 78.792969 C 46.644531 78.414062 46.429688 78.015625 46.253906 77.597656 C 46.082031 77.175781 45.949219 76.742188 45.859375 76.296875 C 45.773438 75.851562 45.726562 75.398438 45.726562 74.945312 C 45.726562 74.492188 45.773438 74.039062 45.859375 73.59375 C 45.949219 73.148438 46.082031 72.714844 46.253906 72.292969 C 46.429688 71.875 46.644531 71.476562 46.894531 71.097656 C 47.148438 70.71875 47.433594 70.367188 47.757812 70.046875 C 48.078125 69.726562 48.429688 69.4375 48.808594 69.1875 C 49.183594 68.933594 49.585938 68.71875 50.003906 68.546875 C 50.425781 68.371094 50.859375 68.238281 51.304688 68.152344 C 51.75 68.0625 52.199219 68.019531 52.65625 68.019531 C 53.109375 68.019531 53.558594 68.0625 54.007812 68.152344 C 54.453125 68.238281 54.886719 68.371094 55.304688 68.546875 C 55.726562 68.71875 56.125 68.933594 56.503906 69.1875 C 56.882812 69.4375 57.230469 69.726562 57.554688 70.046875 C 57.875 70.367188 58.160156 70.71875 58.414062 71.097656 C 58.667969 71.476562 58.878906 71.875 59.054688 72.292969 C 59.230469 72.714844 59.359375 73.148438 59.449219 73.59375 C 59.539062 74.039062 59.582031 74.492188 59.582031 74.945312 Z M 59.582031 74.945312 " fill-opacity="1" fill-rule="nonzero"/><path fill="#48caff" d="M 71.847656 61.449219 C 71.847656 61.765625 71.820312 62.078125 71.757812 62.386719 C 71.695312 62.695312 71.605469 62.996094 71.484375 63.285156 C 71.363281 63.578125 71.214844 63.851562 71.042969 64.113281 C 70.867188 64.375 70.667969 64.621094 70.445312 64.84375 C 70.222656 65.066406 69.980469 65.261719 69.71875 65.4375 C 69.457031 65.613281 69.179688 65.761719 68.890625 65.882812 C 68.597656 66.003906 68.296875 66.09375 67.988281 66.15625 C 67.679688 66.214844 67.367188 66.246094 67.054688 66.246094 C 66.738281 66.246094 66.425781 66.214844 66.117188 66.15625 C 65.808594 66.09375 65.507812 66.003906 65.21875 65.882812 C 64.925781 65.761719 64.652344 65.613281 64.390625 65.4375 C 64.128906 65.261719 63.886719 65.066406 63.664062 64.84375 C 63.441406 64.621094 63.242188 64.375 63.066406 64.113281 C 62.890625 63.851562 62.742188 63.578125 62.621094 63.285156 C 62.503906 62.996094 62.410156 62.695312 62.351562 62.386719 C 62.289062 62.078125 62.257812 61.765625 62.257812 61.449219 C 62.257812 61.136719 62.289062 60.824219 62.351562 60.515625 C 62.410156 60.207031 62.503906 59.90625 62.621094 59.613281 C 62.742188 59.324219 62.890625 59.046875 63.066406 58.785156 C 63.242188 58.523438 63.441406 58.28125 63.664062 58.058594 C 63.886719 57.835938 64.128906 57.636719 64.390625 57.460938 C 64.652344 57.289062 64.925781 57.140625 65.21875 57.019531 C 65.507812 56.898438 65.808594 56.808594 66.117188 56.746094 C 66.425781 56.683594 66.738281 56.65625 67.054688 56.65625 C 67.367188 56.65625 67.679688 56.683594 67.988281 56.746094 C 68.296875 56.808594 68.597656 56.898438 68.890625 57.019531 C 69.179688 57.140625 69.457031 57.289062 69.71875 57.460938 C 69.980469 57.636719 70.222656 57.835938 70.445312 58.058594 C 70.667969 58.28125 70.867188 58.523438 71.042969 58.785156 C 71.214844 59.046875 71.363281 59.324219 71.484375 59.613281 C 71.605469 59.90625 71.695312 60.207031 71.757812 60.515625 C 71.820312 60.824219 71.847656 61.136719 71.847656 61.449219 Z M 71.847656 61.449219 " fill-opacity="1" fill-rule="nonzero"/><path fill="#48caff" d="M 57.785156 44.617188 C 57.785156 45.136719 57.6875 45.632812 57.488281 46.109375 C 57.289062 46.585938 57.007812 47.007812 56.644531 47.375 C 56.277344 47.738281 55.855469 48.019531 55.378906 48.21875 C 54.902344 48.417969 54.40625 48.515625 53.886719 48.515625 C 53.371094 48.515625 52.875 48.417969 52.394531 48.21875 C 51.917969 48.019531 51.496094 47.738281 51.132812 47.375 C 50.765625 47.007812 50.484375 46.585938 50.285156 46.109375 C 50.089844 45.632812 49.988281 45.136719 49.988281 44.617188 C 49.988281 44.101562 50.089844 43.605469 50.285156 43.125 C 50.484375 42.648438 50.765625 42.226562 51.132812 41.863281 C 51.496094 41.496094 51.917969 41.214844 52.394531 41.015625 C 52.875 40.820312 53.371094 40.722656 53.886719 40.722656 C 54.40625 40.722656 54.902344 40.820312 55.378906 41.015625 C 55.855469 41.214844 56.277344 41.496094 56.644531 41.863281 C 57.007812 42.226562 57.289062 42.648438 57.488281 43.125 C 57.6875 43.605469 57.785156 44.101562 57.785156 44.617188 Z M 57.785156 44.617188 " fill-opacity="1" fill-rule="nonzero"/><g mask="url(#4a95275c2c)"><g transform="matrix(1, 0, 0, 1, 21, 91)"><g clip-path="url(#c9769f7c3c)"><g clip-path="url(#ccbd6ad77e)"><path fill="#ffffff" d="M 5.832031 1.144531 C 6.128906 1.152344 6.417969 1.238281 6.699219 1.398438 C 6.984375 1.554688 7.257812 1.785156 7.519531 2.082031 C 7.78125 2.382812 8.023438 2.746094 8.253906 3.175781 C 8.484375 3.601562 8.691406 4.089844 8.878906 4.628906 C 9.070312 5.171875 9.234375 5.757812 9.371094 6.390625 C 9.511719 7.027344 9.625 7.695312 9.710938 8.394531 C 9.796875 9.097656 9.855469 9.820312 9.886719 10.5625 C 9.914062 11.304688 9.914062 12.050781 9.886719 12.808594 C 9.859375 13.5625 9.800781 14.308594 9.714844 15.046875 C 9.628906 15.785156 9.519531 16.5 9.378906 17.191406 C 9.238281 17.886719 9.078125 18.542969 8.890625 19.164062 C 8.699219 19.785156 8.492188 20.359375 8.265625 20.882812 C 8.035156 21.410156 7.789062 21.878906 7.53125 22.289062 C 7.269531 22.699219 6.996094 23.042969 6.714844 23.320312 C 6.429688 23.597656 6.140625 23.808594 5.847656 23.941406 C 5.550781 24.078125 5.257812 24.140625 4.960938 24.128906 C 4.667969 24.121094 4.378906 24.035156 4.09375 23.875 C 3.8125 23.71875 3.539062 23.488281 3.277344 23.191406 C 3.015625 22.890625 2.769531 22.527344 2.539062 22.097656 C 2.3125 21.671875 2.101562 21.183594 1.914062 20.644531 C 1.726562 20.101562 1.5625 19.515625 1.421875 18.882812 C 1.28125 18.246094 1.167969 17.578125 1.082031 16.878906 C 0.996094 16.175781 0.9375 15.453125 0.910156 14.710938 C 0.878906 13.96875 0.878906 13.222656 0.90625 12.464844 C 0.9375 11.710938 0.992188 10.964844 1.078125 10.226562 C 1.164062 9.488281 1.277344 8.773438 1.417969 8.082031 C 1.554688 7.386719 1.71875 6.730469 1.90625 6.109375 C 2.09375 5.488281 2.300781 4.914062 2.53125 4.390625 C 2.757812 3.863281 3.003906 3.394531 3.265625 2.984375 C 3.527344 2.574219 3.796875 2.230469 4.082031 1.953125 C 4.363281 1.675781 4.652344 1.464844 4.949219 1.332031 C 5.242188 1.195312 5.539062 1.132812 5.832031 1.144531 Z M 5.832031 1.144531 " fill-opacity="1" fill-rule="nonzero"/></g></g></g></g><g mask="url(#72ca5e3f86)"><g transform="matrix(1, 0, 0, 1, 23, 117)"><g clip-path="url(#a2b7ddd8c1)"><g clip-path="url(#2feb9c961a)"><path fill="#ffffff" d="M 6.675781 4.433594 C 6.675781 4.835938 6.597656 5.226562 6.445312 5.601562 C 6.289062 5.976562 6.066406 6.304688 5.78125 6.59375 C 5.496094 6.878906 5.164062 7.097656 4.789062 7.253906 C 4.414062 7.410156 4.027344 7.488281 3.621094 7.488281 C 3.214844 7.488281 2.824219 7.410156 2.453125 7.253906 C 2.078125 7.097656 1.746094 6.878906 1.460938 6.59375 C 1.175781 6.304688 0.953125 5.976562 0.796875 5.601562 C 0.644531 5.226562 0.566406 4.835938 0.566406 4.433594 C 0.566406 4.027344 0.644531 3.636719 0.796875 3.261719 C 0.953125 2.886719 1.175781 2.558594 1.460938 2.269531 C 1.746094 1.984375 2.078125 1.765625 2.453125 1.609375 C 2.824219 1.453125 3.214844 1.375 3.621094 1.375 C 4.027344 1.375 4.414062 1.453125 4.789062 1.609375 C 5.164062 1.765625 5.496094 1.984375 5.78125 2.269531 C 6.066406 2.558594 6.289062 2.886719 6.445312 3.261719 C 6.597656 3.636719 6.675781 4.027344 6.675781 4.433594 Z M 6.675781 4.433594 " fill-opacity="1" fill-rule="nonzero"/></g></g></g></g></g></g></svg>